<svg version="1" xmlns="http://www.w3.org/2000/svg" width="346.667" height="346.667" viewBox="0 0 260.000000 260.000000"><path d="M65.7 12.6c-.1.1-3 .4-6.3.8-11.9 1.2-22.9 6.3-27.7 12.8-5.8 7.9-6 9.4-6.1 45.9l-.2 33.5-2.4 3.3c-2.9 4.2-10.4 7.7-17 8-1.3.1-1.6 1.8-1.5 10.2 0 11.2.1 11.3 6.6 12.4 4.3.7 9.4 3.9 12.3 7.8 1.9 2.6 2 4.1 2.1 35 .1 17.7.5 33.8 1 35.7 1.9 8.7 7.9 15.9 16.3 19.7 7.2 3.2 12.7 4.3 24.6 5l10.2.6v-8.2c0-4.8-.5-8.1-1.1-8.2-9.4-1.1-10.6-1.4-13.9-4-5.2-4.1-6.3-8.8-7.1-31.4-1.1-30.6-1.5-38.1-2-40.5-2.6-13.8-8.4-20.1-20.1-21.8-5.7-.9-6.1-2.4-.9-2.9 8-.8 14.5-4.9 17.9-11.3 3.2-6 3.5-8.9 5.1-50.5.8-19.8 1.3-23.5 4-28.1 2.7-4.6 8-7.4 14-7.4 1.9 0 3.6-.3 3.6-.8.7-3.8.3-15.2-.6-15.3-1.7-.2-10.6-.5-10.8-.3zM182.3 13.4c-.4.6-.7 2.7-.7 4.6.1 1.9.2 5.1.3 7.1l.1 3.6 5.6.6c7.4.8 11.7 4.1 13.8 10.4 1.5 4.7 2 12.4 3.1 42.8.8 21.6 1.4 26.3 4.6 32.6 3.2 6.5 9.4 10.3 17.9 11.2 4.8.6 5.1 2.7.3 2.7-7.8.1-15.8 5.5-19 12.9-2.6 6-3.1 10.3-3.8 32.1-1.2 35.3-1.7 39.6-4.8 45.2-2.3 4.2-6.7 6.7-12.6 7.1-2.2.1-4.3.5-4.6.8-.3.3-.6 4.1-.8 8.4l-.2 7.8 10.5-.6c21.8-1.3 33.6-7.2 39.3-19.7 2-4.2 2.1-6.5 2.3-38.1.2-37.1.3-37.6 6.6-42 1.8-1.3 5.7-2.8 8.8-3.5l5.5-1.1.3-10.5.3-10.5-5.7-1.1c-7.3-1.5-11.8-4.3-13.9-8.8-1.4-3.1-1.7-7.9-1.9-36.7-.2-32.4-.2-33.3-2.5-38.4-4-8.9-12.4-15-24.3-17.7-8.6-2-23.5-2.7-24.5-1.2z"/><path d="M167.7 41.1c-2.1 5.9-7.3 12-13.1 15.4-4 2.3-4.3 2.3-9.6.9-3-.8-10-1.7-15.5-2C99.1 53.8 79.1 67 77.3 89.8c-1 12.1 2.9 22.4 11 29.3l3.7 3.2-3.8 1.8c-8 4-12.9 10.6-13.9 18.9-.8 6.9 1.2 13.2 5.9 18.5 2.2 2.5 3.5 4.5 2.8 4.5-2.4 0-10.9 9.3-13.1 14.3-3.1 7.2-3.2 17.5-.1 23.7 2.9 6 9.1 12.3 15 15.1 4.6 2.2 5.6 2.2 34.2 2.3 16.2 0 31.8-.3 34.5-.6 20.9-2.7 34.4-15.8 34.6-33.7.2-11.8-4.1-20.9-12.6-26.8-6.2-4.2-9.7-4.7-39-4.8-18.7-.1-29.2-.6-31.6-1.4-10.6-3.5-11.6-16.1-1.7-21.2 3.8-1.9 6.1-2.2 19.8-2.4 16.6-.3 19.4-.6 26.8-3.1 17-5.7 26.5-19.5 25.6-37.2-.4-7.2-3.9-15.6-8.5-20.2-2.8-2.7-2.9-3.1-1.2-3.6 10.2-3.7 15.3-7.7 18.8-14.9 1.5-2.9 2.9-7.6 3.2-10.4l.5-5.1H169.5l-1.8 5.1zm-27.8 34c9.4 3.3 13.4 8.6 13.4 18.1 0 12.8-9.1 19.2-27.3 19.1-18.8 0-28.2-7.8-26.5-21.9 1-8.3 5.4-13.1 14.8-15.9 6.4-1.9 19-1.6 25.6.6zm15.8 102.2c7.9 1.3 12.5 10.5 8.9 17.5-.9 1.7-3.7 4.4-6.4 5.9l-4.7 2.8H126c-27.2 0-27.5 0-30.8-2.3-5.5-3.9-7-10.5-4.2-17.2 1.7-3.8 6-6.4 11.5-7 6.8-.7 48.4-.4 53.2.3z"/></svg>